# xmcd
#
# Track frame offsets:
#	150
#	13121
#	29091
#	29824
#	42366
#	56377
#	70574
#	71094
#	86100
#	104831
#	122766
#	135245
#	149465
#	168346
#	169133
#	185469
#	200218
#
# Disc length: 2805 seconds
#
# Revision: 1
# Processed by: cddbd v1.5.2PL0 Copyright (c) Steve Scherf et al.
# Submitted via: audiograbber 1.83.01
#
DISCID=040af311
DTITLE=Various Artist - Hillcrest #38
DYEAR=2007
DGENRE=Country
TTITLE0=Lucie Diamond - I Wanna Be Rich
TTITLE1=Mike Denver - Seasons in the Sun
TTITLE2=Obert Mizzell - Radio Liner
TTITLE3=Robert Mizzell and Philomena Begley - You're Waltzing With Me
TTITLE4=Jayne Denham - Chick Ute
TTITLE5=Alby Pool - In My Arms Tonight
TTITLE6=Chilli Gold - Radio Liner
TTITLE7=Chilli Gold - Every Time You Leave
TTITLE8=Marty Rivers - I'm Available
TTITLE9=Jeannette Wormald - Opal Blue
TTITLE10=Oe Stoylen - It's About Time
TTITLE11=Karen Kruise - Ready Before Eight
TTITLE12=Bryen Willems - Deep Down I'm Shallow
TTITLE13=Kate Russell - Radio Liner
TTITLE14=Kate Russell - Mr. Right
TTITLE15=Bill Durham - I'm Still Missing You
TTITLE16=Kathy Kane - Go On and Go
EXTD=
EXTT0=
EXTT1=
EXTT2=
EXTT3=
EXTT4=
EXTT5=
EXTT6=
EXTT7=
EXTT8=
EXTT9=
EXTT10=
EXTT11=
EXTT12=
EXTT13=
EXTT14=
EXTT15=
EXTT16=
PLAYORDER=
